<svg width="133" height="55" viewBox="0 0 133 55" fill="none" xmlns="http://www.w3.org/2000/svg">
<path d="M7.5625 43.4551C6.92448 41.1309 6.2181 38.3965 5.44336 35.252C4.80534 32.5632 4.0306 29.3047 3.11914 25.4766C2.25326 21.6029 1.31901 17.1823 0.316406 12.2148C0.316406 11.8958 0.521484 11.5085 0.931641 11.0527C1.29622 10.5514 1.75195 10.0957 2.29883 9.68555C2.8457 9.22982 3.41536 8.86523 4.00781 8.5918C4.60026 8.27279 5.12435 8.11328 5.58008 8.11328C5.76237 8.38672 6.08138 9.5944 6.53711 11.7363C6.7194 12.6478 6.92448 13.8099 7.15234 15.2227C7.42578 16.5898 7.72201 18.2988 8.04102 20.3496C8.36003 22.4004 8.70182 24.8158 9.06641 27.5957C9.47656 30.3301 9.93229 33.4974 10.4336 37.0977C10.7982 34.6367 11.14 32.3125 11.459 30.125C11.8236 27.9375 12.1426 26.0007 12.416 24.3145C12.735 22.3548 13.0312 20.5319 13.3047 18.8457C13.4414 17.7975 13.6009 16.7038 13.7832 15.5645C13.9655 14.3796 14.1478 13.3086 14.3301 12.3516C14.5579 11.3945 14.7858 10.597 15.0137 9.95898C15.2871 9.27539 15.5605 8.93359 15.834 8.93359C16.1074 8.93359 16.5176 9.00195 17.0645 9.13867C17.6113 9.22982 18.1582 9.36654 18.7051 9.54883C19.2975 9.73112 19.8216 9.95898 20.2773 10.2324C20.7331 10.4603 20.9609 10.7109 20.9609 10.9844C20.9609 11.1211 20.8242 11.8047 20.5508 13.0352C20.2773 14.2201 19.9128 15.7467 19.457 17.6152C19.0013 19.4837 18.4772 21.6029 17.8848 23.9727C17.2923 26.2969 16.6771 28.6667 16.0391 31.082C15.4466 33.4974 14.8314 35.8672 14.1934 38.1914C13.5553 40.5156 12.9629 42.5892 12.416 44.4121C11.9147 46.1895 11.4818 47.6478 11.1172 48.7871C10.7526 49.8809 10.502 50.4277 10.3652 50.4277C10.2285 50.4277 9.84115 49.8125 9.20312 48.582C8.61068 47.306 8.0638 45.597 7.5625 43.4551ZM26.9766 32.2441C27.7057 31.9707 28.526 31.6745 29.4375 31.3555C30.3945 30.9909 31.306 30.6719 32.1719 30.3984C33.0378 30.0794 33.8125 29.806 34.4961 29.5781C35.1797 29.3503 35.681 29.168 36 29.0312C35.9544 28.5299 35.8861 27.9603 35.7949 27.3223C35.7493 26.6387 35.681 26.0007 35.5898 25.4082C35.4987 24.7702 35.3848 24.2233 35.248 23.7676C35.1113 23.3118 34.9746 23.0384 34.8379 22.9473C34.4733 22.8105 33.8581 22.6966 32.9922 22.6055C32.1719 22.4688 31.306 22.4915 30.3945 22.6738C29.5286 22.8561 28.7311 23.1979 28.002 23.6992C27.2728 24.2005 26.8626 24.998 26.7715 26.0918C26.6803 26.821 26.6576 27.7324 26.7031 28.8262C26.7487 29.9199 26.8398 31.0592 26.9766 32.2441ZM41.8105 33.3379C41.765 33.429 41.2181 33.6113 40.1699 33.8848C39.1217 34.1582 37.8685 34.4544 36.4102 34.7734C34.9518 35.0469 33.4023 35.3431 31.7617 35.6621C30.1211 35.9355 28.7083 36.1634 27.5234 36.3457C27.7513 38.1686 28.0247 39.8092 28.3438 41.2676C28.6628 42.6803 28.9362 43.569 29.1641 43.9336C29.3919 44.2526 29.6882 44.5488 30.0527 44.8223C30.3717 45.0501 30.7591 45.278 31.2148 45.5059C31.7161 45.6882 32.3086 45.8249 32.9922 45.916C33.4935 46.0527 33.972 45.8704 34.4277 45.3691C34.7923 44.9134 35.1113 44.1159 35.3848 42.9766C35.7038 41.8372 35.8633 40.0371 35.8633 37.5762C37.276 37.3483 38.3698 37.2116 39.1445 37.166C39.9648 37.1204 40.5573 37.1204 40.9219 37.166C41.3776 37.2116 41.651 37.2799 41.7422 37.3711C41.7878 37.5078 41.7878 37.8496 41.7422 38.3965C41.6966 38.9434 41.5827 39.627 41.4004 40.4473C41.2637 41.222 41.0814 42.0879 40.8535 43.0449C40.6712 43.9564 40.4434 44.8451 40.1699 45.7109C39.8965 46.5312 39.6003 47.2832 39.2812 47.9668C38.9622 48.6048 38.6204 49.0605 38.2559 49.334C37.1621 50.1543 35.7949 50.5645 34.1543 50.5645C32.5137 50.5189 30.8958 50.291 29.3008 49.8809C27.7057 49.4251 26.2702 48.901 24.9941 48.3086C23.7181 47.6706 22.9206 47.1465 22.6016 46.7363C22.3737 46.4629 22.1686 45.7793 21.9863 44.6855C21.804 43.5462 21.6445 42.179 21.5078 40.584C21.4167 38.9889 21.3483 37.2344 21.3027 35.3203C21.2572 33.4062 21.2799 31.5378 21.3711 29.7148C21.5078 27.8919 21.6901 26.2057 21.918 24.6562C22.1914 23.1068 22.556 21.8535 23.0117 20.8965C23.6953 19.5293 24.8118 18.4128 26.3613 17.5469C27.9108 16.681 29.5514 16.0885 31.2832 15.7695C33.015 15.4505 34.6556 15.4049 36.2051 15.6328C37.8001 15.8607 38.985 16.362 39.7598 17.1367C40.2155 17.5924 40.6257 18.5039 40.9902 19.8711C41.3548 21.1927 41.5827 22.8105 41.6738 24.7246C41.6738 24.9069 41.6966 25.431 41.7422 26.2969C41.7878 27.1628 41.8105 28.097 41.8105 29.0996C41.8561 30.0566 41.8789 30.9681 41.8789 31.834C41.8789 32.6999 41.8561 33.2012 41.8105 33.3379ZM61.0879 14.7441C61.4525 14.972 61.7943 15.4277 62.1133 16.1113C62.4779 16.7493 62.7969 17.5013 63.0703 18.3672C63.3893 19.1875 63.64 20.0762 63.8223 21.0332C64.0501 21.9902 64.2324 22.8789 64.3691 23.6992C64.5514 24.5195 64.6654 25.2259 64.7109 25.8184C64.7565 26.3652 64.7565 26.707 64.7109 26.8438C64.6198 27.026 64.3464 27.2083 63.8906 27.3906C63.4805 27.5729 62.8652 27.778 62.0449 28.0059C61.2246 28.2337 60.0853 28.4844 58.627 28.7578C58.5358 26.2513 58.3535 24.36 58.0801 23.084C57.8066 21.7624 57.5104 20.8281 57.1914 20.2812C56.8268 19.6432 56.4395 19.3242 56.0293 19.3242C55.6191 19.5065 55.2546 19.7344 54.9355 20.0078C54.6165 20.2357 54.3431 20.4863 54.1152 20.7598C53.8418 21.0788 53.5911 21.4206 53.3633 21.7852C53.2721 21.9219 53.181 22.2409 53.0898 22.7422C52.9987 23.2435 52.9076 23.9954 52.8164 24.998C52.8164 25.3171 52.7936 25.9779 52.748 26.9805C52.748 27.9831 52.7253 29.1452 52.6797 30.4668C52.6797 31.7884 52.6569 33.1784 52.6113 34.6367C52.6113 36.0951 52.5885 37.4622 52.543 38.7383C52.543 39.9688 52.5202 41.0169 52.4746 41.8828C52.4746 42.7487 52.4518 43.25 52.4062 43.3867C52.3151 43.6146 52.0872 43.9336 51.7227 44.3438C51.3581 44.7539 50.9479 45.1413 50.4922 45.5059C50.0365 45.8249 49.6035 46.0983 49.1934 46.3262C48.7832 46.5085 48.5098 46.4857 48.373 46.2578C48.2363 46.1211 48.0996 45.5286 47.9629 44.4805C47.8262 43.4323 47.6667 42.1562 47.4844 40.6523C47.3477 39.1029 47.1882 37.4167 47.0059 35.5938C46.8236 33.7708 46.6641 32.0163 46.5273 30.3301C46.3906 28.6439 46.2767 27.14 46.1855 25.8184C46.0944 24.4512 46.026 23.4714 45.9805 22.8789C45.9349 22.013 45.8893 21.056 45.8438 20.0078C45.7982 18.9596 45.7526 17.9798 45.707 17.0684C45.707 16.1113 45.707 15.291 45.707 14.6074C45.7526 13.8783 45.8438 13.4453 45.9805 13.3086C46.0716 13.1719 46.3678 13.1491 46.8691 13.2402C47.416 13.2858 47.9857 13.4225 48.5781 13.6504C49.2161 13.8327 49.8086 14.0833 50.3555 14.4023C50.9023 14.7214 51.2669 15.0176 51.4492 15.291C51.5859 15.5189 51.7227 15.8607 51.8594 16.3164C52.7253 15.8607 53.5456 15.4505 54.3203 15.0859C55.1406 14.6758 55.9154 14.3796 56.6445 14.1973C57.4193 14.015 58.1712 13.9694 58.9004 14.0605C59.6296 14.1061 60.3587 14.334 61.0879 14.7441ZM91.5762 0.730469C91.7129 0.91276 91.4622 1.84701 90.8242 3.5332C90.2318 5.17383 89.3887 7.29297 88.2949 9.89062C87.2012 12.4883 85.9251 15.4277 84.4668 18.709C83.0085 21.9447 81.5046 25.2259 79.9551 28.5527C81.2311 31.7884 82.4388 34.9557 83.5781 38.0547C84.7174 41.1081 85.6973 43.8424 86.5176 46.2578C87.3835 48.6276 88.0215 50.5417 88.4316 52C88.8874 53.5039 89.0241 54.2786 88.8418 54.3242C88.5228 54.3698 88.0443 54.2103 87.4062 53.8457C86.8138 53.4811 86.1758 53.0254 85.4922 52.4785C84.8086 51.9316 84.1706 51.362 83.5781 50.7695C83.0312 50.1771 82.6211 49.653 82.3477 49.1973C81.6641 47.7845 80.9577 46.349 80.2285 44.8906C79.4993 43.3867 78.8385 42.0195 78.2461 40.7891C77.5625 39.3307 76.9017 37.918 76.2637 36.5508C75.0788 38.9661 73.9395 41.2448 72.8457 43.3867C71.7975 45.5286 70.8633 47.3971 70.043 48.9922C69.2227 50.5872 68.5163 51.8405 67.9238 52.752C67.377 53.709 67.0352 54.1875 66.8984 54.1875C66.4883 54.1875 66.1237 53.9596 65.8047 53.5039C65.5312 53.0482 65.2806 52.5013 65.0527 51.8633C64.8704 51.2253 64.7565 50.5872 64.7109 49.9492C64.6654 49.2656 64.6882 48.696 64.7793 48.2402C65.6908 45.7793 66.5794 43.3411 67.4453 40.9258C68.3112 38.5104 69.1087 36.3457 69.8379 34.4316C70.6582 32.1986 71.4557 30.0794 72.2305 28.0742C71.1823 25.8411 70.1569 23.6536 69.1543 21.5117C68.1517 19.3242 67.2402 17.319 66.4199 15.4961C65.6452 13.6732 65.0072 12.1009 64.5059 10.7793C63.959 9.45768 63.6172 8.50065 63.4805 7.9082C63.2526 6.95117 63.321 6.03971 63.6855 5.17383C64.0501 4.26237 64.5059 3.46484 65.0527 2.78125C65.5996 2.09766 66.1693 1.57357 66.7617 1.20898C67.3542 0.844401 67.7871 0.730469 68.0605 0.867188C68.2428 1.00391 68.5846 1.55078 69.0859 2.50781C69.5872 3.41927 70.1797 4.64974 70.8633 6.19922C71.5924 7.7487 72.39 9.57161 73.2559 11.668C74.1217 13.7188 75.0332 15.9062 75.9902 18.2305C77.1751 15.2227 78.2461 12.5794 79.2031 10.3008C80.1602 7.97656 80.9121 6.42708 81.459 5.65234C82.0514 4.69531 82.8945 3.875 83.9883 3.19141C85.082 2.46224 86.153 1.89258 87.2012 1.48242C88.2949 1.02669 89.252 0.753255 90.0723 0.662109C90.9382 0.525391 91.4395 0.548177 91.5762 0.730469ZM106 15.4277C106.091 15.5645 106.228 16.2025 106.41 17.3418C106.592 18.4811 106.775 19.8939 106.957 21.5801C107.185 23.2663 107.39 25.0892 107.572 27.0488C107.8 29.0085 108.005 30.877 108.188 32.6543C108.415 34.4316 108.598 36.0267 108.734 37.4395C108.871 38.8522 108.985 39.8092 109.076 40.3105C109.213 41.1309 109.372 42.0423 109.555 43.0449C109.737 44.002 109.896 44.9362 110.033 45.8477C110.17 46.7135 110.261 47.4655 110.307 48.1035C110.398 48.7415 110.375 49.1289 110.238 49.2656C110.147 49.4023 109.783 49.4479 109.145 49.4023C108.507 49.3112 107.8 49.1745 107.025 48.9922C106.296 48.7643 105.59 48.5137 104.906 48.2402C104.268 47.9212 103.858 47.625 103.676 47.3516C103.493 47.1237 103.311 46.7819 103.129 46.3262C102.992 45.8704 102.81 45.0729 102.582 43.9336C102.081 44.6172 101.534 45.3464 100.941 46.1211C100.395 46.8503 99.8477 47.5339 99.3008 48.1719C98.7539 48.7643 98.2526 49.2428 97.7969 49.6074C97.3411 49.972 96.9993 50.1543 96.7715 50.1543C96.4069 50.1543 95.86 49.7897 95.1309 49.0605C94.4017 48.2858 93.6725 47.4199 92.9434 46.4629C92.2142 45.5059 91.5534 44.5944 90.9609 43.7285C90.3685 42.8626 90.0495 42.293 90.0039 42.0195C89.9128 41.7461 89.8672 40.9941 89.8672 39.7637C89.9128 38.5332 89.9583 37.166 90.0039 35.6621C90.0951 34.1126 90.1862 32.5859 90.2773 31.082C90.3685 29.5326 90.4596 28.3021 90.5508 27.3906C90.6419 26.4792 90.7331 25.4766 90.8242 24.3828C90.9609 23.2435 91.0977 22.1953 91.2344 21.2383C91.3711 20.2357 91.485 19.3698 91.5762 18.6406C91.7129 17.9115 91.8268 17.4785 91.918 17.3418C92.0091 17.2051 92.2598 17.1367 92.6699 17.1367C93.1257 17.0911 93.5814 17.1139 94.0371 17.2051C94.5384 17.2507 94.9941 17.3646 95.4043 17.5469C95.8145 17.6836 96.0879 17.8659 96.2246 18.0938C96.3158 18.276 96.3613 18.8685 96.3613 19.8711C96.4069 20.8281 96.4297 22.013 96.4297 23.4258C96.4297 24.793 96.4297 26.2969 96.4297 27.9375C96.4297 29.5326 96.4069 31.0365 96.3613 32.4492C96.3613 33.8164 96.3385 35.0013 96.293 36.0039C96.293 36.9609 96.293 37.5306 96.293 37.7129C96.293 38.0775 96.498 38.7839 96.9082 39.832C97.3639 40.8802 97.8197 41.8828 98.2754 42.8398L101.83 38.6016C101.785 37.7812 101.739 36.7331 101.693 35.457C101.693 34.181 101.671 32.8366 101.625 31.4238C101.579 30.0111 101.534 28.5755 101.488 27.1172C101.443 25.6589 101.42 24.3372 101.42 23.1523C101.42 21.9674 101.42 20.9876 101.42 20.2129C101.42 19.4382 101.443 18.9824 101.488 18.8457C101.625 18.5723 101.898 18.2077 102.309 17.752C102.719 17.2962 103.174 16.8633 103.676 16.4531C104.177 16.043 104.633 15.724 105.043 15.4961C105.499 15.2682 105.818 15.2454 106 15.4277ZM132.865 18.3672C132.911 18.8685 132.82 19.6432 132.592 20.6914C132.41 21.7396 132.113 22.7878 131.703 23.8359C131.339 24.8841 130.837 25.7956 130.199 26.5703C129.607 27.3451 128.923 27.7324 128.148 27.7324C127.602 27.7324 127.146 27.2995 126.781 26.4336C126.462 25.5677 126.212 24.5651 126.029 23.4258C125.893 22.2409 125.779 21.0788 125.688 19.9395C125.596 18.8001 125.505 18.0026 125.414 17.5469C125.277 17.319 125.004 17.1139 124.594 16.9316C124.229 16.7038 123.865 16.5898 123.5 16.5898C123.135 16.5898 122.725 16.8861 122.27 17.4785C121.814 18.071 121.358 18.7546 120.902 19.5293C120.492 20.304 120.128 21.0788 119.809 21.8535C119.535 22.6283 119.421 23.1979 119.467 23.5625C119.467 23.8359 119.763 24.3145 120.355 24.998C120.948 25.6816 121.677 26.502 122.543 27.459C123.454 28.3704 124.411 29.373 125.414 30.4668C126.462 31.515 127.419 32.5859 128.285 33.6797C129.151 34.7279 129.88 35.7305 130.473 36.6875C131.111 37.6445 131.452 38.4648 131.498 39.1484C131.544 39.9688 131.316 41.0169 130.814 42.293C130.359 43.569 129.766 44.7995 129.037 45.9844C128.308 47.1693 127.533 48.1947 126.713 49.0605C125.893 49.9264 125.163 50.3822 124.525 50.4277C123.887 50.4733 122.953 50.1315 121.723 49.4023C120.538 48.6276 119.33 47.7389 118.1 46.7363C116.915 45.6882 115.844 44.6628 114.887 43.6602C113.975 42.6576 113.451 41.9284 113.314 41.4727C113.178 41.0625 113.087 40.5156 113.041 39.832C113.041 39.1484 113.064 38.4648 113.109 37.7812C113.201 37.0977 113.337 36.528 113.52 36.0723C113.702 35.571 113.93 35.3203 114.203 35.3203C114.477 35.3203 115.023 35.7988 115.844 36.7559C116.664 37.6673 117.553 38.7155 118.51 39.9004C119.467 41.0397 120.401 42.0879 121.312 43.0449C122.224 43.9564 122.885 44.4121 123.295 44.4121C123.523 44.4121 123.773 44.2526 124.047 43.9336C124.32 43.569 124.571 43.1589 124.799 42.7031C125.027 42.2474 125.209 41.7917 125.346 41.3359C125.528 40.8346 125.619 40.4473 125.619 40.1738C125.574 39.7637 125.209 39.1712 124.525 38.3965C123.842 37.6217 122.976 36.7559 121.928 35.7988C120.88 34.8418 119.74 33.8392 118.51 32.791C117.279 31.6973 116.14 30.6719 115.092 29.7148C114.044 28.7578 113.178 27.8919 112.494 27.1172C111.811 26.3424 111.446 25.75 111.4 25.3398C111.355 24.9297 111.492 24.2917 111.811 23.4258C112.13 22.5143 112.54 21.5345 113.041 20.4863C113.542 19.3926 114.112 18.276 114.75 17.1367C115.434 15.9974 116.117 14.9492 116.801 13.9922C117.484 13.0352 118.145 12.2604 118.783 11.668C119.467 11.0299 120.059 10.7109 120.561 10.7109C121.563 10.7109 122.748 10.9844 124.115 11.5312C125.528 12.0781 126.872 12.7617 128.148 13.582C129.424 14.3568 130.518 15.1771 131.43 16.043C132.341 16.9089 132.82 17.6836 132.865 18.3672Z" fill="white"/>
</svg>
